<?xml version="1.0" encoding="iso-8859-1"?>
<!-- Uploaded to: SVG Repo, www.svgrepo.com, Generator: SVG Repo Mixer Tools -->
<svg fill="#000000" height="800px" width="800px" version="1.1" id="Layer_1" xmlns="http://www.w3.org/2000/svg" xmlns:xlink="http://www.w3.org/1999/xlink" 
	 viewBox="0 0 503.607 503.607" xml:space="preserve">
<g>
	<g>
		<g>
			<path d="M178.685,98.231c1.645,1.654,3.811,2.493,5.968,2.493c2.132,0,4.264-0.806,5.901-2.426
				c3.299-3.257,3.332-8.57,0.076-11.868c-7.848-7.94-7.865-22.301-0.042-30.132c14.252-14.252,14.269-39.39,0.042-53.802
				c-3.265-3.29-8.578-3.341-11.868-0.067c-3.299,3.257-3.332,8.561-0.076,11.868c7.848,7.932,7.865,22.301,0.034,30.132
				C164.475,58.681,164.458,83.819,178.685,98.231z"/>
			<path d="M114.513,100.173c0.99,0.378,1.998,0.546,2.996,0.546c3.374,0,6.564-2.056,7.839-5.397
				c1.654-4.331-0.52-9.182-4.843-10.836c-1.872-0.713-2.845-2.14-2.871-4.239c-0.034-1.939,0.932-4.44,3.106-5.355
				c8.175-3.416,13.572-11.894,13.43-21.101c-0.143-8.964-5.372-16.493-13.665-19.666c-4.348-1.67-9.182,0.512-10.836,4.851
				c-1.654,4.331,0.512,9.182,4.843,10.836c1.872,0.713,2.837,2.14,2.871,4.239c0.034,1.939-0.932,4.44-3.106,5.355
				c-8.175,3.416-13.572,11.894-13.43,21.101C100.991,89.471,106.22,97,114.513,100.173z"/>
			<path d="M257.201,100.173c0.99,0.378,1.998,0.546,2.996,0.546c3.374,0,6.564-2.056,7.839-5.397
				c1.654-4.331-0.52-9.182-4.843-10.836c-1.872-0.713-2.845-2.14-2.871-4.239c-0.034-1.939,0.932-4.44,3.106-5.355
				c8.175-3.416,13.572-11.894,13.43-21.101c-0.143-8.964-5.372-16.493-13.664-19.666c-4.348-1.67-9.182,0.512-10.836,4.851
				c-1.654,4.331,0.512,9.182,4.843,10.836c1.872,0.713,2.837,2.14,2.871,4.239c0.034,1.939-0.932,4.44-3.106,5.355
				c-8.175,3.416-13.572,11.894-13.43,21.101C243.68,89.471,248.909,97,257.201,100.173z"/>
			<polygon points="268.59,310.558 318.951,310.558 318.951,230.098 293.771,204.918 268.59,230.098 			"/>
			<path d="M377.957,159.552c-0.369-3.013-0.755-6.48-1.125-9.879c-1.108-10.106-2.266-20.556-3.651-25.894
				c-0.965-3.685-4.306-6.27-8.125-6.27h-62.892v72.066l31.115,31.115c1.578,1.57,2.459,3.701,2.459,5.934v92.328
				c0,4.642-3.76,8.393-8.393,8.393h-67.148c-4.633,0-8.393-3.752-8.393-8.393v-92.328c0-2.233,0.881-4.365,2.459-5.934
				l31.115-31.115v-72.066H21.043c-3.819,0-7.16,2.585-8.125,6.278C4.44,156.345,0,208.611,0,243.41
				c0,110.584,43.713,212.136,111.381,258.711c1.402,0.965,3.055,1.486,4.759,1.486h153.818c1.704,0,3.357-0.52,4.759-1.486
				c28.076-19.322,52.786-48.774,71.73-85.42c9.098,1.972,18.172,2.971,27.06,2.971c71.739,0,130.098-58.36,130.098-130.098
				C503.607,219.33,447.639,161.902,377.957,159.552z M373.508,369.312c-4.583,0-9.283-0.445-14.344-1.36
				c-2.367-0.436-4.432-1.855-5.682-3.903c-1.251-2.056-1.553-4.541-0.848-6.832c11.071-35.806,16.678-74.097,16.678-113.807
				c0-7.823-0.252-15.83-0.772-24.5c-0.143-2.384,0.73-4.709,2.401-6.404c1.67-1.704,4.004-2.686,6.371-2.493
				c42.58,2.031,75.935,36.973,75.935,79.561C453.246,333.539,417.473,369.312,373.508,369.312z"/>
		</g>
	</g>
</g>
</svg>