<?xml version="1.0" ?><!-- Uploaded to: SVG Repo, www.svgrepo.com, Generator: SVG Repo Mixer Tools -->
<svg width="800px" height="800px" viewBox="0 0 512 512" id="Layer_1" version="1.1" xml:space="preserve" xmlns="http://www.w3.org/2000/svg" xmlns:xlink="http://www.w3.org/1999/xlink"><style type="text/css">
	.st0{fill:#333333;}
</style><path class="st0" d="M38,130.3v23.8c10.9,0,19.7,8.8,19.7,19.7c0,10.9-8.8,19.7-19.7,19.7v15.5c10.9,0,19.7,8.8,19.7,19.7  c0,10.9-8.8,19.7-19.7,19.7v15.5c10.9,0,19.7,8.8,19.7,19.7s-8.8,19.7-19.7,19.7v15.5c10.9,0,19.7,8.8,19.7,19.7  s-8.8,19.7-19.7,19.7v23.8h436V130.3H38z M182,344h-74.3c-3.9,0-7-3.1-7-7s3.1-7,7-7H182c3.9,0,7,3.1,7,7S185.9,344,182,344z   M182,290h-74.3c-3.9,0-7-3.1-7-7s3.1-7,7-7H182c3.9,0,7,3.1,7,7S185.9,290,182,290z M182,236h-74.3c-3.9,0-7-3.1-7-7s3.1-7,7-7H182  c3.9,0,7,3.1,7,7S185.9,236,182,236z M182,182h-74.3c-3.9,0-7-3.1-7-7s3.1-7,7-7H182c3.9,0,7,3.1,7,7S185.9,182,182,182z M237,354  c0,3.9-3.1,7-7,7s-7-3.1-7-7v-33.9c0-3.9,3.1-7,7-7s7,3.1,7,7V354z M237,300c0,3.9-3.1,7-7,7s-7-3.1-7-7v-33.9c0-3.9,3.1-7,7-7  s7,3.1,7,7V300z M237,245.9c0,3.9-3.1,7-7,7s-7-3.1-7-7V212c0-3.9,3.1-7,7-7s7,3.1,7,7V245.9z M237,191.9c0,3.9-3.1,7-7,7  s-7-3.1-7-7V158c0-3.9,3.1-7,7-7s7,3.1,7,7V191.9z M436.1,187.7l-1.9,20c-0.4,3.9-2.3,7.6-5.4,10.1l-20.1,16.6l27,69.3l-14.2,14.2  L370,266.4l-25.8,21.3l13.1,45.9l-7.1,7.1l-33.5-33.5c-4.4,0.5-9-0.9-12.3-4.3c-3.4-3.3-4.8-7.9-4.3-12.3l-33.5-33.5l7.1-7.1  l45.9,13.1l21.3-25.8l-51.5-51.5l14.2-14.2l69.3,27l16.6-20c2.5-3.1,6.2-5,10.1-5.3l20-1.9C429.1,170.5,436.9,178.3,436.1,187.7z"/></svg>